<svg width="60" height="60" viewBox="0 0 60 60" fill="none" xmlns="http://www.w3.org/2000/svg">
    <rect width="60" height="60" rx="30" fill="black" />
    <path fill-rule="evenodd" clip-rule="evenodd" d="M29.1933 26.961C29.67 27.4391 30.44 27.4391 30.9166 26.961L38.69 19.1652C39.1666 18.6871 39.1666 17.9149 38.69 17.4368L32.64 11.3693C32.1755 10.879 31.4055 10.879 30.9289 11.357L23.1433 19.1652C22.6666 19.6432 22.6666 20.4154 23.1433 20.8935L29.1933 26.961ZM38.5556 28.1619H36.3922L34.0578 29.9325H36.3922L38.5556 35.3804H21.4444L24.5 29.9325H26.8251L23.62 28.1619H21.4444L19 32.6564V43.5521C19 46.5485 20.0878 49 21.4322 49H38.5556C39.9 49 41 46.5757 41 43.5521V32.6564L38.5556 28.1619ZM36.1111 18.2947L31.7845 13.9555L25.7345 20.023L30.0611 24.3623L36.1111 18.2947Z" fill="white" />
    <rect x="22.6667" y="28.1621" width="15.8889" height="2.45154" fill="white" />
    <rect x="22.6667" y="28.1621" width="15.8889" height="2.45154" fill="white" />
    <rect x="20.2222" y="31.8389" width="19.5556" height="4.90307" fill="white" />
    <rect x="20.2222" y="31.8389" width="19.5556" height="4.90307" fill="white" />
</svg>